<svg width="111" height="83" viewBox="0 0 111 83" fill="none" xmlns="http://www.w3.org/2000/svg">
<path d="M47.0865 65.7428H50.5467V68.9871H47.0865V65.7428Z" fill="#515151"/>
<path d="M54.0068 65.7428H57.467V68.9871H54.0068V65.7428Z" fill="#515151"/>
<path d="M60.9271 65.7428H64.3873V68.9871H60.9271V65.7428Z" fill="#515151"/>
<path d="M5.5647 8.65039H9.02485V11.8947H5.5647V8.65039Z" fill="#515151"/>
<path d="M15.9452 15.5707H33.2459V18.815H15.9452V15.5707Z" fill="#515151"/>
<path d="M5.5647 15.5707H9.02485V18.815H5.5647V15.5707Z" fill="#515151"/>
<path d="M36.7061 15.5707H43.6264V18.815H36.7061V15.5707Z" fill="#515151"/>
<path d="M28.0557 22.491H43.6263V25.7353H28.0557V22.491Z" fill="#515151"/>
<path d="M15.9452 22.491H24.5956V25.7353H15.9452V22.491Z" fill="#515151"/>
<path d="M5.5647 22.491H9.02485V25.7353H5.5647V22.491Z" fill="#515151"/>
<path d="M15.9452 8.65039H29.7858V11.8947H15.9452V8.65039Z" fill="#515151"/>
<path d="M15.9452 29.4113H33.2459V32.6556H15.9452V29.4113Z" fill="#515151"/>
<path d="M5.5647 29.4113H9.02485V32.6556H5.5647V29.4113Z" fill="#515151"/>
<path d="M36.7061 29.4113H43.6264V32.6556H36.7061V29.4113Z" fill="#515151"/>
<path d="M15.9452 36.3315H22.8655V39.5759H15.9452V36.3315Z" fill="#515151"/>
<path d="M5.5647 36.3315H9.02485V39.5759H5.5647V36.3315Z" fill="#515151"/>
<path d="M26.3257 36.3315H36.7061V39.5759H26.3257V36.3315Z" fill="#515151"/>
<path d="M15.9452 43.2518H26.3256V46.4961H15.9452V43.2518Z" fill="#515151"/>
<path d="M5.5647 43.2518H9.02485V46.4961H5.5647V43.2518Z" fill="#515151"/>
<path d="M29.7858 43.2518H43.6264V46.4961H29.7858V43.2518Z" fill="#515151"/>
<path d="M110.883 55.1465V0H59.197V13.6248H107.639V51.9022H62.4414V17.0849H59.197V27.6812H52.0609V0H0.374512V55.1465H52.0609V30.9255H59.197V55.1465H92.0685V72.6631H63.7161L61.9861 74.3932H49.4886L47.7585 72.6631H19.1895V58.6067H15.9452V72.6631H12.485V79.3676C12.485 81.2157 14.0971 82.8277 15.9452 82.8277H95.5286C97.3776 82.8277 98.7729 81.2157 98.7729 79.3676V72.6631H95.3128V55.1465H110.883ZM62.4414 10.3804V3.24431H107.639V10.3804H62.4414ZM3.61882 3.24431H10.755V51.9022H3.61882V3.24431ZM48.8166 51.9022H13.9993V3.24431H48.8166V51.9022ZM95.5286 79.3676C95.5286 79.4266 95.5885 79.5834 95.5286 79.5834H15.9452C15.8862 79.5834 15.7293 79.4266 15.7293 79.3676V75.9074H46.4154L48.1455 77.6375H63.3292L65.0592 75.9074H95.5286V79.3676Z" fill="#515151"/>
<path d="M67.8474 5.19019H71.3076V8.4345H67.8474V5.19019Z" fill="#515151"/>
<path d="M74.7677 5.19019H78.2278V8.4345H74.7677V5.19019Z" fill="#515151"/>
<path d="M81.688 5.19019H85.1481V8.4345H81.688V5.19019Z" fill="#515151"/>
<path d="M66.1173 30.9255H103.963V17.3008H66.1173V30.9255ZM69.3616 20.5451H100.719V27.6812H69.3616V20.5451Z" fill="#515151"/>
<path d="M66.1173 48.2262H79.7421V34.6014H66.1173V48.2262ZM69.3616 37.8458H76.4978V44.9819H69.3616V37.8458Z" fill="#515151"/>
<path d="M83.4181 34.6014H104.179V37.8458H83.4181V34.6014Z" fill="#515151"/>
<path d="M83.4181 39.7917H104.179V43.0361H83.4181V39.7917Z" fill="#515151"/>
<path d="M83.4181 44.9819H104.179V48.2262H83.4181V44.9819Z" fill="#515151"/>
</svg>
