<svg width="83" height="83" viewBox="0 0 83 83" fill="none" xmlns="http://www.w3.org/2000/svg">
<g clip-path="url(#clip0)">
<path d="M63.8063 63.6333H61.0396V69.1666H36.1396V71.9333H61.0396V76.0833C61.0396 78.3751 59.1814 80.2333 56.8896 80.2333H26.4563C24.9736 80.2313 23.6038 79.441 22.8595 78.1583L20.4636 79.5416C21.7038 81.6781 23.9861 82.9952 26.4563 82.9999H56.8896C60.708 82.9952 63.8015 79.9016 63.8063 76.0833V63.6333Z" fill="#515151"/>
<path d="M40.2896 74.7H43.0563V77.4666H40.2896V74.7Z" fill="#515151"/>
<path d="M48.5896 37.35V34.5833H44.3694C43.6797 25.7558 36.6671 18.7432 27.8396 18.0536V13.8333H25.0729V18.0536C24.1408 18.1252 23.2161 18.2697 22.3063 18.4852V11.0667H44.4396V8.3H22.3063V6.91667C22.3063 4.62485 24.1645 2.76667 26.4563 2.76667H56.8896C57.9001 2.76667 58.8761 3.13547 59.634 3.80417L61.4645 1.72917C60.2014 0.61399 58.5742 -0.0006749 56.8896 5.56102e-07H26.4563C22.6379 0.00472875 19.5443 3.09832 19.5396 6.91667V19.3667C13.3106 21.976 9.06531 27.8504 8.54318 34.5833H4.32294V37.35H8.54656C9.19905 46.1944 16.2285 53.2286 25.0729 53.8865V58.1H27.8396V53.8865C36.684 53.2286 43.7135 46.1944 44.366 37.35H48.5896ZM25.0729 48.4167V51.1198C23.1432 50.9462 21.2654 50.4039 19.5396 49.5231V47.0333C19.5396 43.2136 22.6366 40.1167 26.4563 40.1167C30.276 40.1167 33.3729 43.2136 33.3729 47.0333V49.5231C31.6478 50.4052 29.7694 50.9483 27.8396 51.1239V48.4167H25.0729ZM22.3063 33.2C22.3063 30.9082 24.1645 29.05 26.4563 29.05C28.7481 29.05 30.6063 30.9082 30.6063 33.2C30.6063 35.4918 28.7481 37.35 26.4563 37.35C24.1645 37.35 22.3063 35.4918 22.3063 33.2ZM36.6003 47.3103C36.451 47.4481 36.2916 47.5588 36.1396 47.6865V47.0333C36.1362 43.4196 34.1207 40.1086 30.9123 38.4456C33.1345 36.5739 33.9498 33.5127 32.9535 30.7839C31.9572 28.0544 29.3614 26.2388 26.4563 26.2388C23.5511 26.2388 20.9554 28.0544 19.9591 30.7839C18.9628 33.5127 19.778 36.5739 22.0003 38.4456C18.7919 40.1086 16.7763 43.4196 16.7729 47.0333V47.6933C16.6196 47.5676 16.4602 47.4494 16.3123 47.317C13.4456 44.7462 11.6591 41.1852 11.3132 37.35H14.0063V34.5833H11.3099C11.986 27.2803 17.7699 21.4964 25.0729 20.8202V23.5167H27.8396V20.8202C35.1426 21.4964 40.9266 27.2803 41.6027 34.5833H38.9063V37.35H41.5993C41.2535 41.1852 39.4669 44.7462 36.6003 47.317V47.3103Z" fill="#515151"/>
<path d="M79.023 24.9C79.7869 24.9 80.4063 24.2806 80.4063 23.5167V6.91666C80.4063 6.15272 79.7869 5.53333 79.023 5.53333H48.5896C47.8257 5.53333 47.2063 6.15272 47.2063 6.91666V23.5167C47.2063 24.2806 47.8257 24.9 48.5896 24.9H79.023ZM49.973 8.29999H77.6396V22.1333H49.973V8.29999Z" fill="#515151"/>
<path d="M52.7396 11.0667H58.273V13.8333H52.7396V11.0667Z" fill="#515151"/>
<path d="M61.0396 11.0667H74.8729V13.8333H61.0396V11.0667Z" fill="#515151"/>
<path d="M52.7396 16.6H74.873V19.3666H52.7396V16.6Z" fill="#515151"/>
<path d="M78.7784 27.6666C77.7071 27.6687 76.6737 28.0618 75.8733 28.773L63.8062 39.4115V27.6666H61.0396V41.5H61.4394L53.5697 48.4443C48.4498 48.7375 44.4457 52.9712 44.4396 58.1V60.5404C44.445 61.9129 43.6689 63.1699 42.4382 63.7785C41.8634 64.0649 41.5615 64.7093 41.7087 65.3341C41.856 65.9589 42.4139 66.4006 43.0562 66.4H52.7396C57.8683 66.3939 62.1021 62.3898 62.3952 57.2698L82.0746 34.9676C83.2168 33.6721 83.4944 31.8274 82.7832 30.2529C82.0726 28.6785 80.5055 27.6666 78.7784 27.6666ZM52.7396 63.6333H46.4133C46.9354 62.6863 47.2083 61.6218 47.2062 60.5404V58.1C47.211 54.4964 49.9776 51.4981 53.5697 51.2056L59.634 57.2698C59.3422 60.8619 56.3431 63.6292 52.7396 63.6333ZM79.9996 33.1378L60.9774 54.697L56.1425 49.8635L77.7017 30.8399C78.3468 30.2739 79.3201 30.3056 79.9273 30.9122C80.5339 31.5194 80.5656 32.4928 79.9996 33.1378Z" fill="#515151"/>
<path d="M1.55625 76.0834H31.9896C32.7535 76.0834 33.3729 75.464 33.3729 74.7V63.6334C33.3729 62.8694 32.7535 62.25 31.9896 62.25H22.3062V55.3334H19.5396V62.25H1.55625C0.792305 62.25 0.172913 62.8694 0.172913 63.6334V74.7C0.172913 75.464 0.792305 76.0834 1.55625 76.0834ZM2.93958 65.0167H30.6062V73.3167H2.93958V65.0167Z" fill="#515151"/>
<path d="M5.70624 67.7833H12.6229V70.55H5.70624V67.7833Z" fill="#515151"/>
<path d="M15.3896 67.7833H27.8396V70.55H15.3896V67.7833Z" fill="#515151"/>
<path d="M1.55625 19.3667H15.3896C16.1535 19.3667 16.7729 18.7473 16.7729 17.9833V6.91666C16.7729 6.15272 16.1535 5.53333 15.3896 5.53333H1.55625C0.792305 5.53333 0.172913 6.15272 0.172913 6.91666V17.9833C0.172913 18.7473 0.792305 19.3667 1.55625 19.3667ZM2.93958 8.29999H14.0062V16.6H2.93958V8.29999Z" fill="#515151"/>
<path d="M5.70624 11.0667H11.2396V13.8333H5.70624V11.0667Z" fill="#515151"/>
</g>
<defs>
<clipPath id="clip0">
<rect width="83" height="83" fill="white"/>
</clipPath>
</defs>
</svg>
